{"title":"Seven.Swords.aka.Qi jian.2005.DVDRiP.XviD.OPTIONAL-NORDIC_SUB-Z","uid":5921338,"size":1489085684,"categoryP":"video","categoryS":"movies","magnet":"?xt=urn:btih:e88da003f249cff88f719b498f56387a715fccca&amp;dn=+Seven.Swords.aka.Qi+jian.2005.DVDRiP.XviD.OPTIONAL-NORDIC_SUB-Z&amp;tr=udp%3A%2F%2Ftracker.openbittorrent.com%3A80&amp;tr=udp%3A%2F%2Fopen.demonii.com%3A1337&amp;tr=udp%3A%2F%2Ftracker.coppersurfer.tk%3A6969&amp;tr=udp%3A%2F%2Fexodus.desync.com%3A6969","seeders":0,"leechers":2,"uploader":"Zen_Bud","files":-1,"time":1288431626,"description":"\nSeven.Swords.aka.Qi jian.2005.DVDRiP.XviD.OPTIONAL-NORDIC_SUB-Zen_Bud\n\nFormat                           : AVI\nFile size                        : 1.37 GiB\nDuration                         : 2h 26mn\nOverall bit rate                 : 1 339 Kbps\n\nVideo\n\nFormat                           : MPEG-4 Visual\nCodec ID/Hint                    : XviD\nDuration                         : 2h 26mn\nBit rate                         : 1 214 Kbps\nWidth                            : 720 pixels\nHeight                           : 436 pixels\nDisplay aspect ratio             : 2.35:1\nStream size                      : 1.25 GiB (91%)\nWriting library                  : XviD 1.1.2 (UTC 2006-11-01)\n\nAudio\n\nFormat                           : MPEG Audio\nCodec ID/Hint                    : MP3\nDuration                         : 2h 26mn\nBit rate                         : 112 Kbps\nChannel(s)                       : 2 channels\nSampling rate                    : 48.0 KHz\nStream size                      : 118 MiB (8%)\nWriting library                  : LAME3.98\nLanguage                         : Chinese\n\nID                               : 3\nLanguage                         : Danish\n\n\nID                               : 4\nLanguage                         : Swedish\n\n\nID                               : 5\nLanguage                         : Norwegian\n\n\nID                               : 6\nLanguage                         : Finnish\n\n\n\nSeven warriors come together to protect a village from a diabolical General. ","torrent":{"xt":"urn:btih:e88da003f249cff88f719b498f56387a715fccca","amp;dn":"+Seven.Swords.aka.Qi+jian.2005.DVDRiP.XviD.OPTIONAL-NORDIC_SUB-Z","amp;tr":["udp%3A%2F%2Ftracker.openbittorrent.com%3A80","udp%3A%2F%2Fopen.demonii.com%3A1337","udp%3A%2F%2Ftracker.coppersurfer.tk%3A6969","udp%3A%2F%2Fexodus.desync.com%3A6969"],"infoHash":"e88da003f249cff88f719b498f56387a715fccca","infoHashBuffer":{"type":"Buffer","data":[232,141,160,3,242,73,207,248,143,113,155,73,143,86,56,122,113,95,204,202]},"announce":[],"urlList":[]}}